<svg xmlns="http://www.w3.org/2000/svg" width="512" height="512" id="garden">
  <path d="M247.749 337.986L247.937 338.231L247.749 337.986L247.975 214.171C245.14 213.168 242.117 212.816 239.232 211.752C222.934 205.739 214.355 186.113 216.44 169.641C212.438 167.444 208.238 165.302 204.531 162.625C178.344 143.713 174.646 106.617 179.298 76.8257C179.979 72.4644 180.578 64.067 185.875 62.591C191.799 60.9404 202.717 66.21 207.703 69.2422L210.234 70.8917C218.448 52.8262 228.055 36.7015 243.145 23.5932C253.407 14.6795 255.472 13.9342 266.354 23.6454C278.524 34.5064 293.587 54.5734 298.97 70.5254L299.034 70.7262C303.407 68.1525 318.815 59.4863 323.875 63.5007C330.309 68.6054 331.001 90.8856 331.009 98.2458C331.04 123.464 322.844 151.622 300.24 165.624C296.431 167.983 293.667 167.325 293.652 171.421L293.61 177.5C293.326 192.87 282.71 207.204 268.37 212.452C266.178 213.254 263.487 212.591 263.484 214.835L263.215 246.585C266.368 240.19 269.962 233.776 274.275 228.094C298.425 196.279 343.33 182.626 381.959 182.635C388.67 182.637 395.212 182.709 401.878 183.625C412.638 185.105 415.267 188.006 413.184 198.416L411.458 206.406C394.959 278.859 354.62 341.32 280.786 365.356C276.298 366.817 271.722 368.439 267.125 369.505C265.948 369.778 264.589 369.847 263.494 370.357L263.498 414.527C277.174 414.816 287.874 416.386 301.441 418.549C325.407 394.976 355.225 392.353 381.302 415.301L385.317 419.134C387.773 421.529 390.367 420.838 393.625 420.983L403.094 421.748C416.359 423.443 429.38 426.041 442.235 429.735C465.921 436.853 501.733 450.183 505.166 479.023C505.831 484.616 503.737 492.586 497.021 493.154L15.5322 492.962C8.0083 492.529 6.29641 484.938 6.76463 478.722C8.53755 455.184 36.2675 440.504 55.7814 433.493L69.9929 428.904C72.0758 428.285 73.0986 428.872 73.7814 426.754L75.1343 422.804C81.7621 405.839 102.073 395.596 119.698 397.13C124.677 397.564 124.975 398.438 129.404 395.594L136.902 390.944C164.337 375.684 196.545 382.301 216.573 406.201L225.39 417.869L248.016 414.719L247.916 370.39C247.817 366.273 246.489 365.822 244.489 362.5L229.907 339.61C227.571 336.189 225.3 332.7 222.532 329.61C214.315 330.157 206.213 330.916 197.973 330.116C165.027 326.918 145.573 303.968 130.196 277.048C117.63 255.05 107.483 230.688 101.917 205.937C100.706 200.555 98.243 193.675 99.2113 188.125L99.2648 187.8C100.535 180.899 109.678 182.191 114.636 182.647C153.952 186.256 196.574 207.964 216.984 242.924C226.357 258.977 231.408 278.41 232.332 296.933L232.522 315.601C232.579 317.896 235.399 320.556 236.64 322.388L244.89 334.264C245.688 335.349 246.472 336.756 247.394 337.705L247.749 337.986ZM254.225 34.0478C242.918 44.3218 234.36 55.9664 227.923 69.8291L223.534 80.2318L232.049 89.6157C239.337 98.4031 246.591 108.68 251.62 118.993L253.789 116.168L286.474 80.4284L279.224 64.9223C273.529 53.8785 264.671 41.2196 254.225 34.0478ZM194.151 79.3345C190.616 103.39 192.674 135.398 214.533 150.595L223.112 155.675L229.211 146.317L239.925 133.345C231.442 111.599 215.781 89.6282 194.151 79.3345ZM313.523 80.375C300.836 86.2657 290.886 97.5036 281.62 107.655L267.14 124.177L242.172 155.207C232.966 167.145 224.97 182.285 240.333 194.262C251.28 202.209 265.747 200.646 273.754 189.333C281.549 178.317 274.612 167.803 277.634 162.802C281.065 157.12 289.57 154.069 294.71 150.169C311.391 137.516 315.59 117.346 315.566 97.6344C315.56 92.5843 315.676 87.5005 314.768 82.5113L313.523 80.375ZM115.48 197.87C120.866 222.354 130.179 245.211 142.437 266.983C159.224 296.801 175.065 315.331 211.097 315.065L210.921 314.941C209.698 314.044 208.938 312.088 207.985 310.841L181.02 278.697L151.85 250.854C149.583 248.78 147.251 246.681 145.413 244.21L145.28 243.957C143.552 240.486 145.757 235.542 149.214 234.078C153.876 232.104 159.528 237.128 162.795 239.824L186.675 262.065L206.024 283.682C209.945 288.358 213.931 292.947 217.32 298.032C215.285 284.426 213.293 271.378 207.45 258.744C190.475 222.036 153.297 204.4 115.48 197.87ZM376.547 198.109C355.506 198.492 334.396 204.013 315.814 213.898C283.53 231.072 267.006 264.845 263.797 300.362C262.967 309.536 263.497 318.884 263.35 328.094L263.418 327.769C263.623 326.823 263.832 326.246 264.333 325.44L275.069 306.632L292.674 281.414C305.216 264.827 318.984 249.465 335.151 236.304L344.853 229.071C348.439 226.62 353.682 222.721 358.092 225.405C361.825 227.677 363.594 232.353 361.067 236.205C359.009 239.343 354.7 241.325 351.675 243.375L345.415 248.018C318.155 269.998 295.732 299.802 279.114 330.594L268.431 352.557C337.217 335.655 376.866 278.399 393.879 212.845L396.988 198.503L376.547 198.109ZM168.022 398.395C157.567 398.352 146.509 401.801 138.253 408.267C130.386 414.429 131.747 414.702 121.669 413.407C103.913 411.126 91.1545 418.855 86.9222 436.05C85.5913 441.456 83.5628 441.837 78.3968 443.053L70.153 445.126C53.6481 449.848 28.5765 460.237 22.7176 477.554C26.009 478.034 29.7056 477.74 33.0404 477.743L366.375 477.747L488.883 477.558C488.187 476.496 488.102 475.407 487.625 474.273C480.184 456.583 441.7 444.959 423.723 440.893L400.172 437.02C396.117 436.342 391.755 436.507 387.653 436.484C376.233 436.423 376.778 431.766 368.968 425.121C351.142 409.954 329.118 413.431 313.061 428.554C309.055 432.328 306.385 435.181 300.664 434.268L287.618 431.796C274.006 429.629 260.227 428.931 246.498 430.438L234.295 432.18C230.002 432.978 225.164 434.458 220.794 434.262C213.126 433.919 203.892 403.474 175.581 398.772C173.128 398.364 170.509 398.432 168.022 398.395Z"></path>
</svg>
