<svg xmlns="http://www.w3.org/2000/svg" viewBox="0 0 64 64" id="tower-slide">
  <path d="M37.9,45H6.34a1,1,0,0,1-1-1V20.12A3.47,3.47,0,0,1,8.8,16.65H35.51A3.48,3.48,0,0,1,39,20.12V43.9A1.08,1.08,0,0,1,37.9,45ZM7.34,43H37V20.12a1.47,1.47,0,0,0-1.47-1.47H8.8a1.46,1.46,0,0,0-1.46,1.47Z"></path>
  <path d="M41.36 18.65H2.73a2.31 2.31 0 01-1.31-4.21L20.73 1.13a2.34 2.34 0 012.63 0L42.67 14.44a2.31 2.31 0 01-1.31 4.21zM22 2.72a.27.27 0 00-.17.06h0L2.55 16.09a.28.28 0 00-.12.35.3.3 0 00.3.21H41.36a.29.29 0 00.3-.21.3.3 0 00-.12-.35L22.22 2.78A.28.28 0 0022 2.72zM21.3 2h0zM10.83 50.87H6.34a1 1 0 01-1-1V44a1 1 0 011-1h4.49a1 1 0 011 1v5.89A1 1 0 0110.83 50.87zm-3.49-2H9.83V45H7.34zM9.49 63.28H7.67A2.5 2.5 0 015.34 60.6V55a1 1 0 011-1h4.49a1 1 0 011 1V60.6A2.53 2.53 0 019.49 63.28zM7.34 56V60.6c0 .44.23.68.33.68H9.49c.1 0 .34-.24.34-.68V56zM38 50.87H33.49a1 1 0 01-1-1V44a1 1 0 011-1H38a1 1 0 011 1v5.89A1 1 0 0138 50.87zm-3.49-2H37V45H34.49zM36.64 63.28H34.82a2.53 2.53 0 01-2.33-2.68V55a1 1 0 011-1H38a1 1 0 011 1V60.6A2.53 2.53 0 0136.64 63.28zM34.49 56V60.6c0 .44.24.68.33.68h1.82c.1 0 .34-.24.34-.68V56z"></path>
  <path d="M38 56H6.34a1 1 0 01-1-1V49.87a1 1 0 011-1H38a1 1 0 011 1V55A1 1 0 0138 56zM7.34 54H37V50.87H7.34zM22.22 40.29a9.71 9.71 0 119.7-9.7A9.72 9.72 0 0122.22 40.29zm0-17.41a7.71 7.71 0 107.7 7.71A7.72 7.72 0 0022.22 22.88z"></path>
  <path d="M59.6,63.09H38a1,1,0,0,1-1-1V27.42a1,1,0,0,1,.42-.82,1,1,0,0,1,.91-.13,4,4,0,0,1,2.33,2.15c1.56,3.52,3.26,7.12,4.91,10.43,4.07,8.2,7.7,14.38,9.42,16H59.6a4,4,0,0,1,0,8ZM39,61.09H59.6a2,2,0,0,0,0-4h-5a1,1,0,0,1-.62-.22c-2.76-2.18-8.51-13.51-10.21-16.93C42.15,36.73,40.5,33.23,39,29.8Z"></path>
</svg>
